<?xml version="1.0" encoding="UTF-8" standalone="no"?>
<svg width="260px" height="430px" viewBox="0 0 260 430" version="1.1" xmlns="http://www.w3.org/2000/svg" xmlns:xlink="http://www.w3.org/1999/xlink" xmlns:sketch="http://www.bohemiancoding.com/sketch/ns">
    <title>logo</title>
    <description>Created with Sketch (http://www.bohemiancoding.com/sketch)</description>
    <defs></defs>
    <g id="Page-1" stroke="none" stroke-width="1" fill="none" fill-rule="evenodd" sketch:type="MSPage">
        <g id="Funkis-logo" sketch:type="MSLayerGroup">
            <path d="M120,430 L120,295.379022 C120,281.5676 130.671337,266.96621 143.821494,262.770246 L198.070923,245.46029 L259.999993,430 L120,430 Z" id="Delta" fill="#87D1DA" sketch:type="MSShapeGroup"></path>
            <path d="M83.7318655,89.5933936 C70.6251181,93.9525282 60,108.67858 60,122.485271 L60,164.018555 L136.285552,138.598302 C149.38268,134.234012 163.5468,141.311768 167.922481,154.408354 L180,190.556845 L83.7260566,222.573701 C70.6225174,226.931413 60,241.655478 60,255.457762 L60,430 L0,430 L0,75.8849528 C0,62.0760219 10.6249068,47.3508542 23.7208014,42.9988901 L150.317773,0.928799743 C163.41841,-3.42474024 177.585374,3.66173097 181.961055,16.7583176 L194.038574,52.9068089 L83.7318655,89.5933936 Z" id="F" fill="#F23064" sketch:type="MSShapeGroup"></path>
        </g>
    </g>
</svg>